HIERARCHY
ROOT Hips
{
  OFFSET 0.000 66.721 0.000
  CHANNELS 6 Xposition Yposition Zposition Zrotation Xrotation Yrotation
  JOINT LeftUpLeg
  {
    OFFSET 7.932 -0.144 2.263
    CHANNELS 6 Xposition Yposition Zposition Zrotation Xrotation Yrotation
    JOINT LeftLeg
    {
      OFFSET 0.000 -30.452 0.000
      CHANNELS 6 Xposition Yposition Zposition Zrotation Xrotation Yrotation
      JOINT LeftFoot
      {
        OFFSET 0.000 -36.124 0.000
        CHANNELS 6 Xposition Yposition Zposition Zrotation Xrotation Yrotation
        End Site
        {
          OFFSET 0.000 0.000 12.100
        }
      }
    }
  }
  JOINT RightUpLeg
  {
    OFFSET -7.932 -0.144 2.263
    CHANNELS 6 Xposition Yposition Zposition Zrotation Xrotation Yrotation
    JOINT RightLeg
    {
      OFFSET 0.000 -30.452 0.000
      CHANNELS 6 Xposition Yposition Zposition Zrotation Xrotation Yrotation
      JOINT RightFoot
      {
        OFFSET 0.000 -36.124 0.000
        CHANNELS 6 Xposition Yposition Zposition Zrotation Xrotation Yrotation
        End Site
        {
          OFFSET 0.000 0.000 12.100
        }
      }
    }
  }
  JOINT Spine
  {
    OFFSET 0.000 34.300 0.000
    CHANNELS 6 Xposition Yposition Zposition Zrotation Xrotation Yrotation
    JOINT Spine1
    {
      OFFSET 0.000 25.000 0.000
      CHANNELS 6 Xposition Yposition Zposition Zrotation Xrotation Yrotation
      JOINT LeftShoulder
      {
        OFFSET 1.800 -0.600 0.200
        CHANNELS 6 Xposition Yposition Zposition Zrotation Xrotation Yrotation
        JOINT LeftArm
        {
          OFFSET 12.852 0.000 0.000
          CHANNELS 6 Xposition Yposition Zposition Zrotation Xrotation Yrotation
          JOINT LeftForeArm
          {
            OFFSET 23.300 0.000 0.000
            CHANNELS 6 Xposition Yposition Zposition Zrotation Xrotation Yrotation
            JOINT LeftHand
            {
              OFFSET 23.300 0.000 0.000
              CHANNELS 6 Xposition Yposition Zposition Zrotation Xrotation Yrotation
              JOINT LeftHandThumb1
              {
                OFFSET 4.877 -1.044 3.608
                CHANNELS 6 Xposition Yposition Zposition Zrotation Xrotation Yrotation
                JOINT LeftHandThumb2
                {
                  OFFSET 2.665 0.000 0.000
                  CHANNELS 6 Xposition Yposition Zposition Zrotation Xrotation Yrotation
                  JOINT LeftHandThumb3
                  {
                    OFFSET 2.543 0.000 0.000
                    CHANNELS 6 Xposition Yposition Zposition Zrotation Xrotation Yrotation
                    End Site
                    {
                      OFFSET 2.667 0.000 0.000
                    }
                  }
                }
              }
              JOINT LeftHandIndex1
              {
                OFFSET 9.232 -0.301 2.144
                CHANNELS 6 Xposition Yposition Zposition Zrotation Xrotation Yrotation
                JOINT LeftHandIndex2
                {
                  OFFSET 4.225 -0.000 0.000
                  CHANNELS 6 Xposition Yposition Zposition Zrotation Xrotation Yrotation
                  JOINT LeftHandIndex3
                  {
                    OFFSET 2.654 0.000 0.000
                    CHANNELS 6 Xposition Yposition Zposition Zrotation Xrotation Yrotation
                    End Site
                    {
                      OFFSET 1.958 0.000 0.000
                    }
                  }
                }
              }
              JOINT LeftHandMiddle1
              {
                OFFSET 8.920 0.000 -0.000
                CHANNELS 6 Xposition Yposition Zposition Zrotation Xrotation Yrotation
                JOINT LeftHandMiddle2
                {
                  OFFSET 4.863 -0.000 -0.000
                  CHANNELS 6 Xposition Yposition Zposition Zrotation Xrotation Yrotation
                  JOINT LeftHandMiddle3
                  {
                    OFFSET 2.765 -0.000 0.000
                    CHANNELS 6 Xposition Yposition Zposition Zrotation Xrotation Yrotation
                    End Site
                    {
                      OFFSET 2.006 0.000 0.000
                    }
                  }
                }
              }
              JOINT LeftHandRing1
              {
                OFFSET 8.689 -0.126 -2.087
                CHANNELS 6 Xposition Yposition Zposition Zrotation Xrotation Yrotation
                JOINT LeftHandRing2
                {
                  OFFSET 4.538 -0.000 0.000
                  CHANNELS 6 Xposition Yposition Zposition Zrotation Xrotation Yrotation
                  JOINT LeftHandRing3
                  {
                    OFFSET 2.305 0.000 0.000
                    CHANNELS 6 Xposition Yposition Zposition Zrotation Xrotation Yrotation
                    End Site
                    {
                      OFFSET 1.923 0.000 -0.000
                    }
                  }
                }
              }
              JOINT LeftHandPinky1
              {
                OFFSET 8.391 -0.817 -3.758
                CHANNELS 6 Xposition Yposition Zposition Zrotation Xrotation Yrotation
                JOINT LeftHandPinky2
                {
                  OFFSET 3.044 -0.000 -0.000
                  CHANNELS 6 Xposition Yposition Zposition Zrotation Xrotation Yrotation
                  JOINT LeftHandPinky3
                  {
                    OFFSET 1.975 0.000 -0.000
                    CHANNELS 6 Xposition Yposition Zposition Zrotation Xrotation Yrotation
                    End Site
                    {
                      OFFSET 1.667 0.000 -0.000
                    }
                  }
                }
              }
            }
          }
        }
      }
      JOINT RightShoulder
      {
        OFFSET -1.800 -0.600 0.200
        CHANNELS 6 Xposition Yposition Zposition Zrotation Xrotation Yrotation
        JOINT RightArm
        {
          OFFSET -12.852 0.000 0.000
          CHANNELS 6 Xposition Yposition Zposition Zrotation Xrotation Yrotation
          JOINT RightForeArm
          {
            OFFSET -23.300 0.000 0.000
            CHANNELS 6 Xposition Yposition Zposition Zrotation Xrotation Yrotation
            JOINT RightHand
            {
              OFFSET -23.300 0.000 0.000
              CHANNELS 6 Xposition Yposition Zposition Zrotation Xrotation Yrotation
              JOINT RightHandThumb1
              {
                OFFSET -4.877 -1.044 3.608
                CHANNELS 6 Xposition Yposition Zposition Zrotation Xrotation Yrotation
                JOINT RightHandThumb2
                {
                  OFFSET -2.665 0.000 -0.000
                  CHANNELS 6 Xposition Yposition Zposition Zrotation Xrotation Yrotation
                  JOINT RightHandThumb3
                  {
                    OFFSET -2.543 0.000 0.000
                    CHANNELS 6 Xposition Yposition Zposition Zrotation Xrotation Yrotation
                    End Site
                    {
                      OFFSET -2.667 0.000 0.000
                    }
                  }
                }
              }
              JOINT RightHandIndex1
              {
                OFFSET -9.232 -0.301 2.144
                CHANNELS 6 Xposition Yposition Zposition Zrotation Xrotation Yrotation
                JOINT RightHandIndex2
                {
                  OFFSET -4.225 0.000 0.000
                  CHANNELS 6 Xposition Yposition Zposition Zrotation Xrotation Yrotation
                  JOINT RightHandIndex3
                  {
                    OFFSET -2.654 0.000 -0.000
                    CHANNELS 6 Xposition Yposition Zposition Zrotation Xrotation Yrotation
                    End Site
                    {
                      OFFSET -1.958 -0.000 0.000
                    }
                  }
                }
              }
              JOINT RightHandMiddle1
              {
                OFFSET -8.920 0.000 -0.000
                CHANNELS 6 Xposition Yposition Zposition Zrotation Xrotation Yrotation
                JOINT RightHandMiddle2
                {
                  OFFSET -4.863 0.000 0.000
                  CHANNELS 6 Xposition Yposition Zposition Zrotation Xrotation Yrotation
                  JOINT RightHandMiddle3
                  {
                    OFFSET -2.765 -0.000 -0.000
                    CHANNELS 6 Xposition Yposition Zposition Zrotation Xrotation Yrotation
                    End Site
                    {
                      OFFSET -2.006 0.000 0.000
                    }
                  }
                }
              }
              JOINT RightHandRing1
              {
                OFFSET -8.689 -0.126 -2.087
                CHANNELS 6 Xposition Yposition Zposition Zrotation Xrotation Yrotation
                JOINT RightHandRing2
                {
                  OFFSET -4.538 0.000 -0.000
                  CHANNELS 6 Xposition Yposition Zposition Zrotation Xrotation Yrotation
                  JOINT RightHandRing3
                  {
                    OFFSET -2.305 0.000 0.000
                    CHANNELS 6 Xposition Yposition Zposition Zrotation Xrotation Yrotation
                    End Site
                    {
                      OFFSET -1.923 -0.000 0.000
                    }
                  }
                }
              }
              JOINT RightHandPinky1
              {
                OFFSET -8.391 -0.817 -3.758
                CHANNELS 6 Xposition Yposition Zposition Zrotation Xrotation Yrotation
                JOINT RightHandPinky2
                {
                  OFFSET -3.044 -0.000 0.000
                  CHANNELS 6 Xposition Yposition Zposition Zrotation Xrotation Yrotation
                  JOINT RightHandPinky3
                  {
                    OFFSET -1.975 0.000 -0.000
                    CHANNELS 6 Xposition Yposition Zposition Zrotation Xrotation Yrotation
                    End Site
                    {
                      OFFSET -1.667 0.000 0.000
                    }
                  }
                }
              }
            }
          }
        }
      }
      JOINT Neck
      {
        OFFSET 0.000 0.800 0.000
        CHANNELS 6 Xposition Yposition Zposition Zrotation Xrotation Yrotation
        JOINT Head
        {
          OFFSET 0.000 7.115 0.000
          CHANNELS 6 Xposition Yposition Zposition Zrotation Xrotation Yrotation
          End Site
          {
            OFFSET 0.000 12.142 0.000
          }
        }
      }
    }
  }
}
MOTION
Frames:	4
Frame Time:	0.033333
-94.05326 74.67435 -215.42744 6.79787 7.90383 1.14215 4.22033 1.17293 2.55764 18.29142 -38.43528 2.17192 -0.15095 -31.99746 0.01764 -10.77298 54.13476 -10.59672 0.10092 -36.98972 -0.39469 -5.07581 30.66406 9.55709 -1.21687 0.71305 2.97943 -29.22193 -8.61299 -49.62991 0.00299 -27.26467 -0.04697 1.02941 20.94058 10.95364 -0.02411 -37.25697 0.03302 -6.20475 38.11530 9.49157 0.39635 32.60675 -0.02421 -0.77451 3.25858 -33.93283 0.21620 23.59545 -0.19431 -2.32280 1.55768 -37.92086 1.14714 -0.40540 -0.41792 -16.64662 -6.02658 20.28400 11.23347 0.11429 -0.02946 -43.24143 4.19370 -44.27864 22.40198 0.01533 0.01312 15.58748 -2.63744 -29.67169 9.14342 -0.45448 0.64894 -8.98718 -3.37380 4.81416 4.87701 -1.04399 3.60799 -41.57203 -8.46132 -7.72417 2.66500 0.00001 0.00000 -0.00000 0.00000 5.00000 2.54300 0.00000 0.00000 0.00001 0.00000 60.00000 9.23200 -0.30097 2.14399 -79.99523 0.00000 -0.00000 4.22502 -0.00002 0.00000 -89.99464 -0.00000 0.00000 2.65399 0.00000 0.00000 -69.99580 0.00000 -0.00000 8.91999 0.00002 -0.00002 -80.00000 -0.00000 0.00000 4.86300 -0.00001 -0.00001 -90.00000 -0.00000 0.00000 2.76501 -0.00002 0.00000 -70.00000 -0.00000 0.00000 8.68900 -0.12599 -2.08702 -80.00000 -0.00000 0.00000 4.53798 -0.00001 0.00000 -90.00000 -0.00000 0.00000 2.30498 0.00000 0.00001 -70.00000 -0.00000 0.00000 8.39100 -0.81698 -3.75801 -79.99523 0.00000 -0.00000 3.04399 -0.00001 -0.00002 -89.99464 -0.00000 0.00000 1.97500 0.00001 -0.00001 -69.99580 0.00000 -0.00000 -0.99027 -1.22430 -0.49483 48.43909 -21.03840 -17.16063 -14.90928 0.06030 -0.00431 62.71060 -5.18938 -4.53647 -29.21136 -0.00022 -0.00198 -10.55732 -11.79017 62.59888 -27.79438 -0.03688 -0.00745 20.99873 4.56004 69.69535 -4.87700 -1.04399 3.60799 37.43813 21.26626 8.20656 -2.66500 0.00001 -0.00000 0.00001 0.00000 -5.00000 -2.54301 0.00000 0.00001 0.00001 0.00000 -60.00000 -9.23200 -0.30100 2.14399 80.00000 -0.00000 0.00001 -4.22499 0.00000 0.00001 90.00000 -0.00000 0.00001 -2.65399 0.00000 -0.00001 70.00000 -0.00000 0.00001 -8.91999 0.00000 -0.00001 80.00000 -0.00000 0.00001 -4.86300 0.00001 0.00001 90.00000 -0.00000 0.00001 -2.76499 -0.00002 -0.00001 70.00000 -0.00000 0.00001 -8.68900 -0.12603 -2.08700 80.00000 -0.00000 0.00001 -4.53799 0.00000 -0.00001 90.00000 -0.00000 0.00001 -2.30499 0.00000 0.00000 70.00000 -0.00000 0.00001 -8.39100 -0.81701 -3.75800 80.00000 -0.00000 0.00001 -3.04401 -0.00001 0.00001 90.00000 -0.00000 0.00001 -1.97499 0.00002 -0.00001 70.00000 -0.00000 0.00001 0.00674 0.77599 -0.01105 -0.00511 0.00099 0.00634 0.00640 6.99776 -0.01909 10.73645 2.34557 44.70547 
-93.70278 73.31588 -216.14799 6.78642 10.43781 7.68530 4.17318 1.18849 2.67720 14.30244 -45.53341 -0.24821 0.06080 -32.41930 0.02005 -6.09873 57.63166 -14.39431 0.11618 -37.05903 -0.26071 -2.01579 27.70020 3.74054 -1.89162 0.84215 3.20725 -31.59923 -8.05517 -52.06033 0.06944 -26.92484 -0.03825 2.83570 21.86794 8.82159 -0.01693 -37.26015 0.04986 -7.00160 39.28390 10.45072 0.50053 31.84620 -0.05691 -0.53001 3.03029 -34.82430 0.27299 23.22670 -0.18719 -2.58992 1.94928 -40.68592 1.13409 -0.33417 -0.43752 -13.76652 -4.98053 21.66921 10.97187 0.15047 -0.00483 -45.42459 6.49016 -46.38200 22.81221 -0.02240 -0.03626 14.76913 -2.66786 -35.43773 9.80004 -0.33025 0.62538 -5.31333 -1.54892 4.95891 4.87701 -1.04399 3.60799 -41.57203 -8.46132 -7.72417 2.66500 0.00001 0.00000 -0.00000 0.00000 5.00000 2.54300 0.00000 0.00000 0.00001 0.00000 60.00000 9.23200 -0.30097 2.14399 -79.99523 0.00000 -0.00000 4.22502 -0.00002 0.00000 -89.99464 -0.00000 0.00000 2.65399 0.00000 0.00000 -69.99580 0.00000 -0.00000 8.91999 0.00002 -0.00002 -80.00000 -0.00000 0.00000 4.86300 -0.00001 -0.00001 -90.00000 -0.00000 0.00000 2.76501 -0.00002 0.00000 -70.00000 -0.00000 0.00000 8.68900 -0.12599 -2.08702 -80.00000 -0.00000 0.00000 4.53798 -0.00001 0.00000 -90.00000 -0.00000 0.00000 2.30498 0.00000 0.00001 -70.00000 -0.00000 0.00000 8.39100 -0.81698 -3.75801 -79.99523 0.00000 -0.00000 3.04399 -0.00001 -0.00002 -89.99464 -0.00000 0.00000 1.97500 0.00001 -0.00001 -69.99580 0.00000 -0.00000 -0.85050 -1.30853 -0.51331 50.61724 -26.54681 -19.19484 -14.81274 0.13849 0.04819 61.38346 -3.54578 -6.70067 -29.19425 -0.00035 -0.00107 -10.33431 -11.85146 62.70071 -27.77897 -0.03140 -0.01848 21.97025 4.46078 69.48941 -4.87700 -1.04399 3.60799 37.43813 21.26626 8.20656 -2.66500 0.00001 -0.00000 0.00001 0.00000 -5.00000 -2.54301 0.00000 0.00001 0.00001 0.00000 -60.00000 -9.23200 -0.30100 2.14399 80.00000 -0.00000 0.00001 -4.22499 0.00000 0.00001 90.00000 -0.00000 0.00001 -2.65399 0.00000 -0.00001 70.00000 -0.00000 0.00001 -8.91999 0.00000 -0.00001 80.00000 -0.00000 0.00001 -4.86300 0.00001 0.00001 90.00000 -0.00000 0.00001 -2.76499 -0.00002 -0.00001 70.00000 -0.00000 0.00001 -8.68900 -0.12603 -2.08700 80.00000 -0.00000 0.00001 -4.53799 0.00000 -0.00001 90.00000 -0.00000 0.00001 -2.30499 0.00000 0.00000 70.00000 -0.00000 0.00001 -8.39100 -0.81701 -3.75800 80.00000 -0.00000 0.00001 -3.04401 -0.00001 0.00001 90.00000 -0.00000 0.00001 -1.97499 0.00002 -0.00001 70.00000 -0.00000 0.00001 0.00674 0.76028 -0.01193 -0.00511 0.00099 0.00653 -0.02752 6.88942 -0.03964 11.46461 7.11151 40.75433 
-93.24645 71.48520 -216.87062 6.27757 12.82837 11.30925 4.30023 1.22263 2.76481 12.15878 -51.76565 0.88564 0.23583 -32.82729 0.04386 -0.71620 60.71937 -19.17994 0.12611 -37.09406 -0.12471 0.25581 24.58508 -1.30513 -2.46825 1.05263 3.28242 -34.18410 -9.61392 -50.88388 0.19476 -26.71006 -0.04174 4.90829 24.13383 6.01672 -0.03187 -37.23986 0.07649 -6.16641 39.59872 9.23049 0.46594 31.26742 -0.09114 -0.45307 3.01383 -34.28439 0.29454 22.78280 -0.16053 -2.21478 1.92199 -41.23318 1.14129 -0.29965 -0.46693 -11.74631 -4.31614 22.91728 10.93980 0.17543 -0.03213 -47.15203 9.04062 -48.89067 23.20416 -0.03904 -0.02864 13.29853 -2.17427 -38.73101 13.04975 -0.36966 0.61401 3.35327 -1.53647 -4.50133 4.87701 -1.04399 3.60799 -41.57203 -8.46132 -7.72417 2.66500 0.00001 0.00000 -0.00000 0.00000 5.00000 2.54300 0.00000 0.00000 0.00001 0.00000 60.00000 9.23200 -0.30097 2.14399 -79.99523 0.00000 -0.00000 4.22502 -0.00002 0.00000 -89.99464 -0.00000 0.00000 2.65399 0.00000 0.00000 -69.99580 0.00000 -0.00000 8.91999 0.00002 -0.00002 -80.00000 -0.00000 0.00000 4.86300 -0.00001 -0.00001 -90.00000 -0.00000 0.00000 2.76501 -0.00002 0.00000 -70.00000 -0.00000 0.00000 8.68900 -0.12599 -2.08702 -80.00000 -0.00000 0.00000 4.53798 -0.00001 0.00000 -90.00000 -0.00000 0.00000 2.30498 0.00000 0.00001 -70.00000 -0.00000 0.00000 8.39100 -0.81698 -3.75801 -79.99523 0.00000 -0.00000 3.04399 -0.00001 -0.00002 -89.99464 -0.00000 0.00000 1.97500 0.00001 -0.00001 -69.99580 0.00000 -0.00000 -0.71629 -1.37126 -0.53819 51.43591 -32.25854 -21.95609 -14.67589 0.20431 0.10066 60.48132 -1.98223 -8.72937 -29.17231 -0.00052 -0.00006 -11.00250 -12.34156 62.35913 -27.91433 -0.10024 -0.10094 22.31631 4.22980 70.31077 -4.87700 -1.04399 3.60799 37.43813 21.26626 8.20656 -2.66500 0.00001 -0.00000 0.00001 0.00000 -5.00000 -2.54301 0.00000 0.00001 0.00001 0.00000 -60.00000 -9.23200 -0.30100 2.14399 80.00000 -0.00000 0.00001 -4.22499 0.00000 0.00001 90.00000 -0.00000 0.00001 -2.65399 0.00000 -0.00001 70.00000 -0.00000 0.00001 -8.91999 0.00000 -0.00001 80.00000 -0.00000 0.00001 -4.86300 0.00001 0.00001 90.00000 -0.00000 0.00001 -2.76499 -0.00002 -0.00001 70.00000 -0.00000 0.00001 -8.68900 -0.12603 -2.08700 80.00000 -0.00000 0.00001 -4.53799 0.00000 -0.00001 90.00000 -0.00000 0.00001 -2.30499 0.00000 0.00000 70.00000 -0.00000 0.00001 -8.39100 -0.81701 -3.75800 80.00000 -0.00000 0.00001 -3.04401 -0.00001 0.00001 90.00000 -0.00000 0.00001 -1.97499 0.00002 -0.00001 70.00000 -0.00000 0.00001 0.00674 0.75459 -0.01274 -0.00511 0.00099 0.00674 0.00498 6.81555 -0.04740 12.54756 11.67921 38.72014 
-92.99981 68.90023 -218.41693 4.87228 15.98863 11.15764 4.51892 1.37873 2.79554 16.91907 -59.28112 9.14161 0.40873 -33.36047 0.16158 4.06919 64.82263 -24.13189 0.12138 -37.10715 -0.00791 1.79193 21.89319 -5.52965 -2.74059 1.21783 3.15376 -37.28363 -19.05654 -46.87511 0.55702 -26.43525 -0.17056 4.33323 31.56017 0.00197 -0.04199 -37.11343 0.07303 8.08993 37.84181 -14.53313 0.30190 30.87197 -0.10896 -0.29381 2.78919 -31.33605 0.29102 22.60201 -0.12759 -1.96921 2.03099 -39.55940 1.15869 -0.21807 -0.48305 -8.11279 -2.57029 23.57098 10.94580 0.20948 -0.05544 -49.41322 10.36528 -50.96727 23.40498 -0.05439 -0.06821 12.79372 -1.52457 -41.50354 15.65690 -0.20888 0.42364 5.32091 -0.43152 -9.93228 4.87701 -1.04399 3.60799 -41.57203 -8.46132 -7.72417 2.66500 0.00001 0.00000 -0.00000 0.00000 5.00000 2.54300 0.00000 0.00000 0.00001 0.00000 60.00000 9.23200 -0.30097 2.14399 -79.99523 0.00000 -0.00000 4.22502 -0.00002 0.00000 -89.99464 -0.00000 0.00000 2.65399 0.00000 0.00000 -69.99580 0.00000 -0.00000 8.91999 0.00002 -0.00002 -80.00000 -0.00000 0.00000 4.86300 -0.00001 -0.00001 -90.00000 -0.00000 0.00000 2.76501 -0.00002 0.00000 -70.00000 -0.00000 0.00000 8.68900 -0.12599 -2.08702 -80.00000 -0.00000 0.00000 4.53798 -0.00001 0.00000 -90.00000 -0.00000 0.00000 2.30498 0.00000 0.00001 -70.00000 -0.00000 0.00000 8.39100 -0.81698 -3.75801 -79.99523 0.00000 -0.00000 3.04399 -0.00001 -0.00002 -89.99464 -0.00000 0.00000 1.97500 0.00001 -0.00001 -69.99580 0.00000 -0.00000 -0.53344 -1.43911 -0.55665 50.43125 -42.23510 -27.18287 -14.51492 0.13458 0.14581 60.32215 5.23261 -14.02021 -29.21877 -0.00810 -0.02046 8.02410 -3.03434 75.40829 -23.76079 2.04944 1.91797 27.33637 5.25041 43.61288 -4.87700 -1.04399 3.60799 37.43813 21.26626 8.20656 -2.66500 0.00001 -0.00000 0.00001 0.00000 -5.00000 -2.54301 0.00000 0.00001 0.00001 0.00000 -60.00000 -9.23200 -0.30100 2.14399 80.00000 -0.00000 0.00001 -4.22499 0.00000 0.00001 90.00000 -0.00000 0.00001 -2.65399 0.00000 -0.00001 70.00000 -0.00000 0.00001 -8.91999 0.00000 -0.00001 80.00000 -0.00000 0.00001 -4.86300 0.00001 0.00001 90.00000 -0.00000 0.00001 -2.76499 -0.00002 -0.00001 70.00000 -0.00000 0.00001 -8.68900 -0.12603 -2.08700 80.00000 -0.00000 0.00001 -4.53799 0.00000 -0.00001 90.00000 -0.00000 0.00001 -2.30499 0.00000 0.00000 70.00000 -0.00000 0.00001 -8.39100 -0.81701 -3.75800 80.00000 -0.00000 0.00001 -3.04401 -0.00001 0.00001 90.00000 -0.00000 0.00001 -1.97499 0.00002 -0.00001 70.00000 -0.00000 0.00001 0.00674 0.75463 -0.01348 -0.00511 0.00099 0.00695 0.01685 6.79402 -0.06539 13.59435 14.84295 35.90813 
